<mxfile host="app.diagrams.net" modified="2024-04-23T16:35:11.334Z" agent="Mozilla/5.0 (Windows NT 10.0; Win64; x64) AppleWebKit/537.36 (KHTML, like Gecko) Chrome/124.0.0.0 Safari/537.36" etag="JNoivAJYH1X-0H30YMUa" version="24.2.7" type="github">
  <diagram id="C5RBs43oDa-KdzZeNtuy" name="Page-1">
    <mxGraphModel dx="1434" dy="748" grid="1" gridSize="10" guides="1" tooltips="1" connect="1" arrows="1" fold="1" page="1" pageScale="1" pageWidth="827" pageHeight="1169" math="0" shadow="0">
      <root>
        <mxCell id="WIyWlLk6GJQsqaUBKTNV-0" />
        <mxCell id="WIyWlLk6GJQsqaUBKTNV-1" parent="WIyWlLk6GJQsqaUBKTNV-0" />
        <mxCell id="GqsJYp4RnAPQ4oBus4ti-22" value="" style="edgeStyle=orthogonalEdgeStyle;rounded=0;orthogonalLoop=1;jettySize=auto;html=1;" edge="1" parent="WIyWlLk6GJQsqaUBKTNV-1" source="GqsJYp4RnAPQ4oBus4ti-28" target="GqsJYp4RnAPQ4oBus4ti-25">
          <mxGeometry relative="1" as="geometry" />
        </mxCell>
        <mxCell id="GqsJYp4RnAPQ4oBus4ti-23" value="Start" style="rounded=0;whiteSpace=wrap;html=1;" vertex="1" parent="WIyWlLk6GJQsqaUBKTNV-1">
          <mxGeometry x="364" y="170" width="120" height="60" as="geometry" />
        </mxCell>
        <mxCell id="GqsJYp4RnAPQ4oBus4ti-24" value="Randomly generate a word" style="rounded=0;whiteSpace=wrap;html=1;" vertex="1" parent="WIyWlLk6GJQsqaUBKTNV-1">
          <mxGeometry x="364" y="250" width="120" height="60" as="geometry" />
        </mxCell>
        <mxCell id="GqsJYp4RnAPQ4oBus4ti-25" value="Ask the user to guess a letter" style="rounded=1;whiteSpace=wrap;html=1;" vertex="1" parent="WIyWlLk6GJQsqaUBKTNV-1">
          <mxGeometry x="364" y="440" width="120" height="60" as="geometry" />
        </mxCell>
        <mxCell id="GqsJYp4RnAPQ4oBus4ti-26" value="" style="edgeStyle=orthogonalEdgeStyle;rounded=0;orthogonalLoop=1;jettySize=auto;html=1;" edge="1" parent="WIyWlLk6GJQsqaUBKTNV-1" target="GqsJYp4RnAPQ4oBus4ti-25">
          <mxGeometry relative="1" as="geometry">
            <mxPoint x="424" y="560" as="sourcePoint" />
          </mxGeometry>
        </mxCell>
        <mxCell id="GqsJYp4RnAPQ4oBus4ti-27" value="" style="edgeStyle=orthogonalEdgeStyle;rounded=0;orthogonalLoop=1;jettySize=auto;html=1;" edge="1" parent="WIyWlLk6GJQsqaUBKTNV-1" source="GqsJYp4RnAPQ4oBus4ti-23" target="GqsJYp4RnAPQ4oBus4ti-28">
          <mxGeometry relative="1" as="geometry">
            <mxPoint x="424" y="230" as="sourcePoint" />
            <mxPoint x="424" y="490" as="targetPoint" />
          </mxGeometry>
        </mxCell>
        <mxCell id="GqsJYp4RnAPQ4oBus4ti-28" value="Generate as many blanks as letters in word" style="rounded=0;whiteSpace=wrap;html=1;" vertex="1" parent="WIyWlLk6GJQsqaUBKTNV-1">
          <mxGeometry x="364" y="350" width="120" height="60" as="geometry" />
        </mxCell>
        <mxCell id="GqsJYp4RnAPQ4oBus4ti-29" value="" style="edgeStyle=orthogonalEdgeStyle;rounded=0;orthogonalLoop=1;jettySize=auto;html=1;" edge="1" parent="WIyWlLk6GJQsqaUBKTNV-1" source="GqsJYp4RnAPQ4oBus4ti-25" target="GqsJYp4RnAPQ4oBus4ti-32">
          <mxGeometry relative="1" as="geometry">
            <mxPoint x="424" y="500" as="sourcePoint" />
            <mxPoint x="424" y="640" as="targetPoint" />
          </mxGeometry>
        </mxCell>
        <mxCell id="GqsJYp4RnAPQ4oBus4ti-30" style="edgeStyle=orthogonalEdgeStyle;rounded=0;orthogonalLoop=1;jettySize=auto;html=1;exitX=0;exitY=0.5;exitDx=0;exitDy=0;exitPerimeter=0;entryX=0.5;entryY=0;entryDx=0;entryDy=0;" edge="1" parent="WIyWlLk6GJQsqaUBKTNV-1" source="GqsJYp4RnAPQ4oBus4ti-32" target="GqsJYp4RnAPQ4oBus4ti-33">
          <mxGeometry relative="1" as="geometry" />
        </mxCell>
        <mxCell id="GqsJYp4RnAPQ4oBus4ti-31" style="edgeStyle=orthogonalEdgeStyle;rounded=0;orthogonalLoop=1;jettySize=auto;html=1;exitX=1;exitY=0.5;exitDx=0;exitDy=0;exitPerimeter=0;entryX=0.5;entryY=0;entryDx=0;entryDy=0;" edge="1" parent="WIyWlLk6GJQsqaUBKTNV-1" source="GqsJYp4RnAPQ4oBus4ti-32" target="GqsJYp4RnAPQ4oBus4ti-34">
          <mxGeometry relative="1" as="geometry" />
        </mxCell>
        <mxCell id="GqsJYp4RnAPQ4oBus4ti-32" value="Is the guessed letter in the word" style="strokeWidth=2;html=1;shape=mxgraph.flowchart.decision;whiteSpace=wrap;" vertex="1" parent="WIyWlLk6GJQsqaUBKTNV-1">
          <mxGeometry x="340" y="550" width="168" height="110" as="geometry" />
        </mxCell>
        <mxCell id="GqsJYp4RnAPQ4oBus4ti-33" value="Replace the blank with the letter" style="rounded=0;whiteSpace=wrap;html=1;" vertex="1" parent="WIyWlLk6GJQsqaUBKTNV-1">
          <mxGeometry x="180" y="670" width="120" height="60" as="geometry" />
        </mxCell>
        <mxCell id="GqsJYp4RnAPQ4oBus4ti-34" value="Lose a life" style="rounded=0;whiteSpace=wrap;html=1;" vertex="1" parent="WIyWlLk6GJQsqaUBKTNV-1">
          <mxGeometry x="580" y="670" width="120" height="60" as="geometry" />
        </mxCell>
        <mxCell id="GqsJYp4RnAPQ4oBus4ti-35" style="edgeStyle=orthogonalEdgeStyle;rounded=0;orthogonalLoop=1;jettySize=auto;html=1;exitX=0;exitY=0.5;exitDx=0;exitDy=0;exitPerimeter=0;entryX=0;entryY=0.5;entryDx=0;entryDy=0;" edge="1" parent="WIyWlLk6GJQsqaUBKTNV-1" source="GqsJYp4RnAPQ4oBus4ti-37" target="GqsJYp4RnAPQ4oBus4ti-25">
          <mxGeometry relative="1" as="geometry" />
        </mxCell>
        <mxCell id="GqsJYp4RnAPQ4oBus4ti-36" style="edgeStyle=orthogonalEdgeStyle;rounded=0;orthogonalLoop=1;jettySize=auto;html=1;exitX=0.5;exitY=1;exitDx=0;exitDy=0;exitPerimeter=0;entryX=0;entryY=0.5;entryDx=0;entryDy=0;" edge="1" parent="WIyWlLk6GJQsqaUBKTNV-1" source="GqsJYp4RnAPQ4oBus4ti-37" target="GqsJYp4RnAPQ4oBus4ti-43">
          <mxGeometry relative="1" as="geometry" />
        </mxCell>
        <mxCell id="GqsJYp4RnAPQ4oBus4ti-37" value="Are all of the blanks filled?" style="strokeWidth=2;html=1;shape=mxgraph.flowchart.decision;whiteSpace=wrap;" vertex="1" parent="WIyWlLk6GJQsqaUBKTNV-1">
          <mxGeometry x="190" y="770" width="100" height="100" as="geometry" />
        </mxCell>
        <mxCell id="GqsJYp4RnAPQ4oBus4ti-38" style="edgeStyle=orthogonalEdgeStyle;rounded=0;orthogonalLoop=1;jettySize=auto;html=1;exitX=1;exitY=0.5;exitDx=0;exitDy=0;exitPerimeter=0;entryX=1;entryY=0.5;entryDx=0;entryDy=0;" edge="1" parent="WIyWlLk6GJQsqaUBKTNV-1" source="GqsJYp4RnAPQ4oBus4ti-40" target="GqsJYp4RnAPQ4oBus4ti-25">
          <mxGeometry relative="1" as="geometry" />
        </mxCell>
        <mxCell id="GqsJYp4RnAPQ4oBus4ti-39" style="edgeStyle=orthogonalEdgeStyle;rounded=0;orthogonalLoop=1;jettySize=auto;html=1;exitX=0.5;exitY=1;exitDx=0;exitDy=0;exitPerimeter=0;entryX=1;entryY=0.5;entryDx=0;entryDy=0;" edge="1" parent="WIyWlLk6GJQsqaUBKTNV-1" source="GqsJYp4RnAPQ4oBus4ti-40" target="GqsJYp4RnAPQ4oBus4ti-43">
          <mxGeometry relative="1" as="geometry" />
        </mxCell>
        <mxCell id="GqsJYp4RnAPQ4oBus4ti-40" value="Have they run out of lives?" style="strokeWidth=2;html=1;shape=mxgraph.flowchart.decision;whiteSpace=wrap;" vertex="1" parent="WIyWlLk6GJQsqaUBKTNV-1">
          <mxGeometry x="590" y="770" width="100" height="100" as="geometry" />
        </mxCell>
        <mxCell id="GqsJYp4RnAPQ4oBus4ti-41" style="edgeStyle=orthogonalEdgeStyle;rounded=0;orthogonalLoop=1;jettySize=auto;html=1;exitX=0.5;exitY=1;exitDx=0;exitDy=0;entryX=0.5;entryY=0;entryDx=0;entryDy=0;entryPerimeter=0;" edge="1" parent="WIyWlLk6GJQsqaUBKTNV-1" source="GqsJYp4RnAPQ4oBus4ti-33" target="GqsJYp4RnAPQ4oBus4ti-37">
          <mxGeometry relative="1" as="geometry" />
        </mxCell>
        <mxCell id="GqsJYp4RnAPQ4oBus4ti-42" style="edgeStyle=orthogonalEdgeStyle;rounded=0;orthogonalLoop=1;jettySize=auto;html=1;exitX=0.5;exitY=1;exitDx=0;exitDy=0;entryX=0.5;entryY=0;entryDx=0;entryDy=0;entryPerimeter=0;" edge="1" parent="WIyWlLk6GJQsqaUBKTNV-1" source="GqsJYp4RnAPQ4oBus4ti-34" target="GqsJYp4RnAPQ4oBus4ti-40">
          <mxGeometry relative="1" as="geometry" />
        </mxCell>
        <mxCell id="GqsJYp4RnAPQ4oBus4ti-43" value="GAME OVER" style="rounded=1;whiteSpace=wrap;html=1;" vertex="1" parent="WIyWlLk6GJQsqaUBKTNV-1">
          <mxGeometry x="380" y="920" width="120" height="60" as="geometry" />
        </mxCell>
      </root>
    </mxGraphModel>
  </diagram>
</mxfile>
